<?xml version="1.0" encoding="UTF-8" standalone="no"?>
<svg
   version="1.1"
   id="Layer_1"
   x="0px"
   y="0px"
   viewBox="0 0 30 30"
   style="enable-background:new 0 0 30 30; background-color: #242424"
   xml:space="preserve"
   sodipodi:docname="favicon.svg"
   xmlns:inkscape="http://www.inkscape.org/namespaces/inkscape"
   xmlns:sodipodi="http://sodipodi.sourceforge.net/DTD/sodipodi-0.dtd"
   xmlns="http://www.w3.org/2000/svg"
   xmlns:svg="http://www.w3.org/2000/svg"><defs
   id="defs7" /><sodipodi:namedview
   id="namedview5"
   pagecolor="#505050"
   bordercolor="#eeeeee"
   borderopacity="1"
   showgrid="false" />
<rect
   style="fill:#242424;fill-opacity:1;fill-rule:nonzero;stroke:#242424;stroke-width:4.90481;stroke-linecap:butt;stroke-linejoin:round;stroke-dasharray:none;stroke-opacity:1"
   id="rect3800"
   width="25.095194"
   height="25.095194"
   x="2.4524026"
   y="2.4524045" /><path
   style="fill:#ffffff;fill-opacity:0.87"
   d="m 3.085,16.235 c 0,0.27 0.09,0.49 0.28,0.67 0.19,0.18 0.43,0.26 0.72,0.26 h 1.69 c 0.27,0 0.5,-0.09 0.69,-0.27 0.19,-0.18 0.29,-0.4 0.29,-0.66 0,-0.29 -0.09,-0.53 -0.28,-0.71 -0.19,-0.18 -0.42,-0.28 -0.69,-0.28 h -1.7 c -0.29,0 -0.53,0.09 -0.72,0.28 -0.19,0.17 -0.28,0.41 -0.28,0.71 z m 1.77,6.18 c 0,0.97 0.35,1.81 1.06,2.52 0.71,0.71 1.54,1.06 2.51,1.06 h 6.86 c 0.97,0 1.8,-0.35 2.49,-1.05 0.69,-0.7 1.04,-1.54 1.04,-2.53 0,-0.48 -0.07,-0.89 -0.21,-1.23 0.83,-0.53 1.49,-1.24 1.97,-2.12 0.48,-0.88 0.73,-1.83 0.73,-2.84 0,-0.81 -0.16,-1.59 -0.48,-2.33 -0.32,-0.74 -0.75,-1.38 -1.28,-1.91 -0.53,-0.53 -1.17,-0.96 -1.91,-1.28 -0.74,-0.32 -1.51,-0.48 -2.32,-0.48 -1.09,0 -2.1,0.27 -3.02,0.81 -0.92,0.54 -1.65,1.27 -2.18,2.18 -0.53,0.92 -0.79,1.92 -0.79,3.01 v 0.34 c -1,0.57 -1.66,1.4 -1.98,2.49 -0.76,0.24 -1.36,0.66 -1.81,1.27 -0.45,0.61 -0.68,1.31 -0.68,2.09 z m 1.56,-14.16 c 0,0.28 0.09,0.51 0.26,0.67 l 1.61,1.69 c 0.47,0.36 0.94,0.36 1.41,0 0.19,-0.19 0.28,-0.42 0.28,-0.7 0,-0.27 -0.09,-0.5 -0.28,-0.7 l -1.65,-1.65 c -0.21,-0.19 -0.45,-0.29 -0.7,-0.29 -0.28,0 -0.51,0.09 -0.68,0.28 -0.17,0.19 -0.25,0.42 -0.25,0.7 z m 0.42,14.16 c 0,-0.42 0.13,-0.78 0.4,-1.08 0.27,-0.3 0.61,-0.47 1.02,-0.51 l 0.62,-0.08 c 0.13,0 0.2,-0.08 0.2,-0.23 l 0.09,-0.56 c 0.07,-0.58 0.31,-1.06 0.73,-1.44 0.42,-0.39 0.91,-0.58 1.48,-0.58 0.58,0 1.09,0.19 1.51,0.58 0.43,0.39 0.68,0.87 0.75,1.44 l 0.08,0.65 c 0.06,0.15 0.14,0.23 0.24,0.23 h 1.32 c 0.43,0 0.8,0.16 1.12,0.47 0.32,0.31 0.47,0.68 0.47,1.12 0,0.45 -0.16,0.83 -0.47,1.15 -0.31,0.32 -0.69,0.48 -1.12,0.48 h -6.85 c -0.45,0 -0.83,-0.16 -1.13,-0.48 -0.31,-0.32 -0.46,-0.71 -0.46,-1.16 z m 4.42,-6.39 c 0.07,-1.09 0.49,-2.01 1.27,-2.76 0.77,-0.74 1.71,-1.12 2.79,-1.12 1.11,0 2.06,0.4 2.84,1.19 0.78,0.79 1.17,1.76 1.17,2.89 0,0.7 -0.17,1.35 -0.51,1.95 -0.34,0.6 -0.8,1.08 -1.38,1.45 -0.59,-0.49 -1.27,-0.73 -2.03,-0.73 -0.29,-0.88 -0.81,-1.57 -1.54,-2.09 -0.73,-0.52 -1.56,-0.78 -2.48,-0.78 z m 3.09,-8.75 c 0,0.27 0.1,0.51 0.29,0.7 0.19,0.19 0.42,0.29 0.69,0.29 0.28,0 0.51,-0.1 0.7,-0.29 0.19,-0.19 0.29,-0.42 0.29,-0.7 v -2.34 c 0,-0.26 -0.1,-0.48 -0.29,-0.66 -0.19,-0.18 -0.42,-0.27 -0.7,-0.27 -0.27,0 -0.5,0.09 -0.69,0.27 -0.19,0.18 -0.29,0.4 -0.29,0.66 z m 6.32,15.23 c 0,0.27 0.09,0.5 0.27,0.7 l 1.64,1.62 c 0.42,0.42 0.89,0.42 1.41,0 0.18,-0.17 0.26,-0.39 0.26,-0.68 0,-0.27 -0.09,-0.49 -0.26,-0.67 l -1.69,-1.67 c -0.18,-0.17 -0.41,-0.25 -0.68,-0.25 -0.28,0 -0.5,0.09 -0.68,0.27 -0.18,0.18 -0.27,0.41 -0.27,0.68 z m 0,-12.61 c 0,0.28 0.09,0.52 0.27,0.72 0.18,0.18 0.41,0.27 0.68,0.27 0.27,0 0.5,-0.09 0.68,-0.27 l 1.69,-1.69 c 0.18,-0.17 0.26,-0.39 0.26,-0.67 0,-0.28 -0.1,-0.51 -0.29,-0.69 -0.19,-0.18 -0.42,-0.28 -0.7,-0.28 -0.26,0 -0.49,0.1 -0.68,0.29 l -1.64,1.63 c -0.18,0.18 -0.27,0.41 -0.27,0.69 z m 2.58,6.34 c 0,0.27 0.09,0.49 0.28,0.67 0.19,0.18 0.43,0.26 0.72,0.26 h 1.69 c 0.27,0 0.5,-0.09 0.69,-0.27 0.19,-0.18 0.29,-0.4 0.29,-0.66 0,-0.29 -0.09,-0.53 -0.28,-0.71 -0.19,-0.18 -0.42,-0.28 -0.69,-0.28 h -1.69 c -0.29,0 -0.53,0.09 -0.72,0.28 -0.19,0.17 -0.29,0.41 -0.29,0.71 z"
   id="path2" />
</svg>
